<svg width="1293" height="500" viewBox="0 0 1293 500" fill="none" xmlns="http://www.w3.org/2000/svg">
<path d="M124.618 90.2301L165.511 143.212C170.314 144.99 175.438 145.719 180.543 145.353L238.022 133.783C253.367 130.694 269.136 136.533 278.83 148.894L313.514 193.123L353.135 258.73L381.625 287.556C397.607 305.373 398.296 323.311 385.871 339.034L307.762 415.568C298.084 425.051 283.063 426.248 272.023 418.414L118.822 319.101L104.543 250.598L29.8877 178.335C20.6358 169.38 20.7313 154.453 30.0947 145.616L91.5696 87.6105C101.202 78.5215 116.517 79.7347 124.618 90.2301Z" fill="#FFE900"/>
<path d="M250.803 393.742L132.503 302.43L104.542 250.597L118.821 319.1L272.022 418.413C279.887 423.993 289.763 424.968 298.296 421.652C299.048 407.002 294.36 385.383 294.36 385.383L250.803 393.742Z" fill="#ECD80A"/>
<path d="M381.625 287.555L353.135 258.729L332.244 224.135L312.322 201.225L245.831 180.67C245.831 180.67 177.345 187.15 205.38 234.693L253.325 218.556L388.372 296.51C386.541 293.529 384.302 290.54 381.625 287.555Z" fill="#ECD80A"/>
<path d="M118.821 357.74C112.495 357.74 106.169 355.312 101.342 350.455C91.6882 340.741 91.6882 324.993 101.342 315.28L128.706 287.746C138.36 278.033 154.01 278.033 163.664 287.746C173.318 297.46 173.318 313.207 163.664 322.921L136.3 350.455C131.473 355.312 125.147 357.74 118.821 357.74Z" fill="white"/>
<path d="M160.031 385.383C153.705 385.383 147.379 382.955 142.552 378.098C132.898 368.384 132.898 352.637 142.552 342.923L169.916 315.389C179.569 305.676 195.22 305.676 204.874 315.389C214.527 325.103 214.527 340.85 204.874 350.564L177.51 378.098C172.683 382.955 166.357 385.383 160.031 385.383Z" fill="white"/>
<path d="M201.24 413.027C194.914 413.027 188.588 410.599 183.761 405.742C174.107 396.028 174.107 380.281 183.761 370.567L211.125 343.033C220.779 333.32 236.429 333.32 246.083 343.033C255.737 352.747 255.737 368.494 246.083 378.208L218.719 405.742C213.892 410.599 207.566 413.027 201.24 413.027Z" fill="white"/>
<path d="M242.45 440.672C236.124 440.672 229.798 438.243 224.971 433.386C215.317 423.672 215.317 407.925 224.971 398.211L252.335 370.677C261.989 360.964 277.639 360.964 287.293 370.677C296.947 380.391 296.947 396.138 287.293 405.852L259.929 433.386C255.102 438.243 248.776 440.672 242.45 440.672Z" fill="white"/>
<path d="M197.759 235.952C191.834 235.952 185.9 233.744 181.279 229.299C171.76 220.14 171.423 204.949 180.526 195.37L224.301 149.309C231.219 142.027 241.918 139.872 251.092 143.907L341.854 158.477C353.921 163.785 339.333 194.455 334.056 206.6C328.78 218.742 340.816 235.104 328.747 229.794L254.38 197.678C250.094 195.827 245.119 196.849 241.895 200.239L214.999 228.542C210.314 233.47 204.042 235.952 197.759 235.952Z" fill="white"/>
<path d="M301.073 173.567L397.282 76.3822C404.806 68.7824 417.029 68.7662 424.573 76.3448L502.351 154.485C509.915 162.085 509.894 174.425 502.304 181.998L388.092 295.947L259.874 173.636L301.073 173.567Z" fill="white"/>
<path d="M282.182 209.683C282.182 209.683 347.75 218.8 383.943 208.057C383.943 208.057 371.391 226.169 351.109 229.74L388.092 295.946L310.47 221.899L282.182 209.683Z" fill="#EFEFEF"/>
<path d="M118.821 357.74C125.147 357.74 131.473 355.312 136.3 350.455L163.664 322.921C170.903 315.637 172.714 304.958 169.095 295.976L109.522 355.919C112.497 357.133 115.659 357.74 118.821 357.74Z" fill="#EFEFEF"/>
<path d="M160.031 385.383C166.357 385.383 172.683 382.955 177.51 378.098L204.874 350.564C212.139 343.253 213.935 332.525 210.263 323.522L150.636 383.52C153.638 384.762 156.834 385.383 160.031 385.383Z" fill="#EFEFEF"/>
<path d="M201.24 413.027C207.566 413.027 213.892 410.599 218.719 405.742L246.083 378.208C253.268 370.979 255.101 360.408 251.591 351.469L192.145 411.284C195.061 412.444 198.151 413.027 201.24 413.027Z" fill="#EFEFEF"/>
<path d="M292.579 378.571L232.816 438.705C235.889 440.012 239.168 440.672 242.45 440.672C247.981 440.672 253.512 438.814 258.042 435.101L288.997 403.954C294.877 396.692 296.066 386.874 292.579 378.571Z" fill="#EFEFEF"/>
<path d="M619.232 222.632L590.144 323H575.456L552.128 242.216L527.936 323L513.392 323.144L485.312 222.632H499.28L521.168 307.736L545.36 222.632H560.048L583.088 307.448L605.12 222.632H619.232ZM930.838 222.632V323H917.734V277.496H866.614V323H853.51V222.632H866.614V266.696H917.734V222.632H930.838Z" fill="#FFE900"/>
<path d="M667.988 324.296C660.596 324.296 653.876 322.616 647.828 319.256C641.876 315.896 637.172 311.144 633.716 305C630.356 298.76 628.676 291.56 628.676 283.4C628.676 275.336 630.404 268.232 633.86 262.088C637.412 255.848 642.212 251.096 648.26 247.832C654.308 244.472 661.076 242.792 668.564 242.792C676.052 242.792 682.82 244.472 688.868 247.832C694.916 251.096 699.668 255.8 703.124 261.944C706.676 268.088 708.452 275.24 708.452 283.4C708.452 291.56 706.628 298.76 702.98 305C699.428 311.144 694.58 315.896 688.436 319.256C682.292 322.616 675.476 324.296 667.988 324.296ZM667.988 312.776C672.692 312.776 677.108 311.672 681.236 309.464C685.364 307.256 688.676 303.944 691.172 299.528C693.764 295.112 695.06 289.736 695.06 283.4C695.06 277.064 693.812 271.688 691.316 267.272C688.82 262.856 685.556 259.592 681.524 257.48C677.492 255.272 673.124 254.168 668.42 254.168C663.62 254.168 659.204 255.272 655.172 257.48C651.236 259.592 648.068 262.856 645.668 267.272C643.268 271.688 642.068 277.064 642.068 283.4C642.068 289.832 643.22 295.256 645.524 299.672C647.924 304.088 651.092 307.4 655.028 309.608C658.964 311.72 663.284 312.776 667.988 312.776ZM738.786 256.904C741.09 252.392 744.354 248.888 748.578 246.392C752.898 243.896 758.13 242.648 764.274 242.648V256.184H760.818C746.13 256.184 738.786 264.152 738.786 280.088V323H725.682V244.088H738.786V256.904ZM823.465 323L792.505 288.152V323H779.401V216.44H792.505V279.08L822.889 244.088H841.177L804.025 283.4L841.321 323H823.465ZM948.317 283.256C948.317 275.192 949.949 268.136 953.213 262.088C956.477 255.944 960.941 251.192 966.605 247.832C972.365 244.472 978.749 242.792 985.757 242.792C992.669 242.792 998.669 244.28 1003.76 247.256C1008.85 250.232 1012.64 253.976 1015.13 258.488V244.088H1028.38V323H1015.13V308.312C1012.54 312.92 1008.65 316.76 1003.47 319.832C998.381 322.808 992.429 324.296 985.613 324.296C978.605 324.296 972.269 322.568 966.605 319.112C960.941 315.656 956.477 310.808 953.213 304.568C949.949 298.328 948.317 291.224 948.317 283.256ZM1015.13 283.4C1015.13 277.448 1013.93 272.264 1011.53 267.848C1009.13 263.432 1005.87 260.072 1001.74 257.768C997.709 255.368 993.245 254.168 988.349 254.168C983.453 254.168 978.989 255.32 974.957 257.624C970.925 259.928 967.709 263.288 965.309 267.704C962.909 272.12 961.709 277.304 961.709 283.256C961.709 289.304 962.909 294.584 965.309 299.096C967.709 303.512 970.925 306.92 974.957 309.32C978.989 311.624 983.453 312.776 988.349 312.776C993.245 312.776 997.709 311.624 1001.74 309.32C1005.87 306.92 1009.13 303.512 1011.53 299.096C1013.93 294.584 1015.13 289.352 1015.13 283.4ZM1063.63 256.904C1065.93 252.392 1069.2 248.888 1073.42 246.392C1077.74 243.896 1082.97 242.648 1089.12 242.648V256.184H1085.66C1070.97 256.184 1063.63 264.152 1063.63 280.088V323H1050.53V244.088H1063.63V256.904ZM1099.35 283.256C1099.35 275.192 1100.98 268.136 1104.24 262.088C1107.51 255.944 1111.97 251.192 1117.64 247.832C1123.4 244.472 1129.83 242.792 1136.93 242.792C1143.08 242.792 1148.79 244.232 1154.07 247.112C1159.35 249.896 1163.38 253.592 1166.16 258.2V216.44H1179.41V323H1166.16V308.168C1163.57 312.872 1159.73 316.76 1154.64 319.832C1149.56 322.808 1143.6 324.296 1136.79 324.296C1129.78 324.296 1123.4 322.568 1117.64 319.112C1111.97 315.656 1107.51 310.808 1104.24 304.568C1100.98 298.328 1099.35 291.224 1099.35 283.256ZM1166.16 283.4C1166.16 277.448 1164.96 272.264 1162.56 267.848C1160.16 263.432 1156.9 260.072 1152.77 257.768C1148.74 255.368 1144.28 254.168 1139.38 254.168C1134.48 254.168 1130.02 255.32 1125.99 257.624C1121.96 259.928 1118.74 263.288 1116.34 267.704C1113.94 272.12 1112.74 277.304 1112.74 283.256C1112.74 289.304 1113.94 294.584 1116.34 299.096C1118.74 303.512 1121.96 306.92 1125.99 309.32C1130.02 311.624 1134.48 312.776 1139.38 312.776C1144.28 312.776 1148.74 311.624 1152.77 309.32C1156.9 306.92 1160.16 303.512 1162.56 299.096C1164.96 294.584 1166.16 289.352 1166.16 283.4Z" fill="white"/>
</svg>
